<svg xmlns="http://www.w3.org/2000/svg" version="1.1" xmlns:xlink="http://www.w3.org/1999/xlink" xmlns:svgjs="http://svgjs.com/svgjs" width="233.61" height="228.77"><svg xmlns="http://www.w3.org/2000/svg" xmlns:xlink="http://www.w3.org/1999/xlink" viewBox="0 0 233.61 228.77"><defs><style>.cls-1{isolation:isolate;}.cls-2{opacity:0.4;mix-blend-mode:multiply;fill:url(#linear-gradient);}.cls-3{fill:#212683;}.cls-4{fill:#f2a7c5;stroke:#1f2687;}.cls-4,.cls-5,.cls-6{stroke-miterlimit:10;stroke-width:6px;}.cls-5{fill:#cec09f;}.cls-5,.cls-6{stroke:#212683;}.cls-6{fill:none;}</style><linearGradient id="SvgjsLinearGradient1002" x1="-1767.57" y1="-106.17" x2="-1559.97" y2="-106.17" gradientTransform="translate(1240.77 1349.33) rotate(43.53)" gradientUnits="userSpaceOnUse"><stop offset="0" stop-color="#efa6c2"></stop><stop offset="1" stop-color="#96cdbd"></stop></linearGradient></defs><title>Treadmill </title><g class="cls-1"><g id="SvgjsG1001" data-name="Layer 2"><g id="SvgjsG1000" data-name="Layer 1"><path class="cls-2" d="M214.58,164.53a69.19,69.19,0,0,0-34-114.94A69.2,69.2,0,1,0,50.16,95.34a69.2,69.2,0,1,0,91.18,86.77A69.2,69.2,0,0,0,214.58,164.53Z"></path><path class="cls-3" d="M60.26,10.47H57.9V8.12a2.9,2.9,0,0,0-5.8,0v2.35H49.75a2.9,2.9,0,0,0,0,5.8H52.1v2.35a2.9,2.9,0,0,0,5.8,0V16.27h2.35a2.9,2.9,0,0,0,0-5.8Z"></path><path class="cls-3" d="M174.41,32.47h-2.35V30.12a2.9,2.9,0,0,0-5.8,0v2.35H163.9a2.9,2.9,0,0,0,0,5.8h2.35v2.35a2.9,2.9,0,0,0,5.8,0V38.27h2.35a2.9,2.9,0,0,0,0-5.8Z"></path><path class="cls-3" d="M16.92,217.39H14.57V215a2.9,2.9,0,0,0-5.8,0v2.35H6.42a2.9,2.9,0,0,0,0,5.8H8.77v2.35a2.9,2.9,0,0,0,5.8,0v-2.35h2.35a2.9,2.9,0,0,0,0-5.8Z"></path><path class="cls-4" d="M3.54,28.81,21,64H42.67L21.15,25.09A4,4,0,0,0,17.64,23H7.13A4,4,0,0,0,3.54,28.81Z"></path><path class="cls-5" d="M15,64H98.34a0,0,0,0,1,0,0v0a26,26,0,0,1-26,26H15a3.33,3.33,0,0,1-3.33-3.33V67.36A3.33,3.33,0,0,1,15,64Z"></path><polygon class="cls-4" points="22.84 90.02 5.34 165.35 22.84 165.35 40.34 90.02 22.84 90.02"></polygon><path class="cls-4" d="M55.05,193.36h157a6.08,6.08,0,0,0,6.08-6.08V171.44a6.08,6.08,0,0,0-6.08-6.08H9.09A6.09,6.09,0,0,0,3,171.44v15.84a6.09,6.09,0,0,0,6.09,6.08h21.2"></path><path class="cls-5" d="M27.62,146.05H95.35a11.53,11.53,0,0,1,7.35,2.65l20.13,16.66h-100Z"></path><circle class="cls-3" cx="42.91" cy="193.36" r="3.21" transform="translate(-124.16 86.97) rotate(-45)"></circle><line class="cls-6" x1="3" y1="179.36" x2="145.17" y2="179.36"></line><line class="cls-6" x1="151" y1="179.36" x2="161" y2="179.36"></line></g></g></g></svg><style>@media (prefers-color-scheme: light) { :root { filter: none; } }
</style></svg>